<svg width="63" height="95" viewBox="0 0 63 95" fill="none" xmlns="http://www.w3.org/2000/svg">
<path d="M5.79545 39.5542H2.5C2.5 41.5137 2.5 43.7349 2.5 46.1222M5.79545 39.5542H23.0636M5.79545 39.5542V21.1907M57.4682 39.5542H60.5V53.0922M57.4682 39.5542H40.3318M57.4682 39.5542C57.4682 34.8203 57.4682 27.6511 57.4682 21.1907M40.3318 2.52203C45.491 2.53314 50.3837 2.54686 54.1727 2.55921C55.2712 2.82729 57.4682 4.03366 57.4682 6.71445C57.4682 8.10417 57.4682 14.2368 57.4682 21.1907M40.3318 2.52203V39.5542M5.79545 21.1907V6.71445C5.75151 5.37405 6.40182 2.66644 9.35455 2.55921C10.5633 2.51531 15.9958 2.49987 22.9318 2.5C28.256 2.5001 34.4661 2.50939 40.3318 2.52203M40.3318 39.5542H23.0636M22.9318 2.5L23.0636 39.5542M5.79545 21.1907H57.4682M2.5 46.1222C2.5 62.2429 2.5 85.9406 2.5 87.8086C2.5 89.9532 4.08182 91.383 4.87273 91.8298C21.0424 92.0532 54.0145 92.5 56.5455 92.5C59.0764 92.5 60.2364 89.9979 60.5 88.7469V53.0922M2.5 46.1222L38.8818 56.3092C40.7712 58.2304 45.1564 62.0461 47.5818 61.9389C50.0073 61.8317 57.2045 55.9964 60.5 53.0922" stroke="#241613" stroke-width="5" stroke-linecap="round"/>
</svg>
