<svg width="54" height="34" viewBox="0 0 54 34" fill="none" xmlns="http://www.w3.org/2000/svg">
<path d="M28.3649 4.36907C27.4177 3.51907 25.9849 3.51907 25.0377 4.36907C20.2777 8.64335 19.4277 14.1805 19.4277 16.9976C19.4277 19.7905 20.2777 25.3519 25.062 29.6262C26.0092 30.4762 27.442 30.4762 28.3892 29.6262C33.1492 25.3519 33.9992 19.8148 33.9992 16.9976C33.9992 14.2048 33.1492 8.64335 28.3649 4.36907Z" fill="#79745F"/>
<path d="M15.7857 17C15.7857 14.6443 16.3443 6.89714 23.1443 1.21429C21.25 0.461429 19.1857 0 17 0C7.62571 0 0 7.62571 0 17C0 26.3743 7.62571 34 17 34C19.1857 34 21.25 33.5386 23.1443 32.7857C16.3443 27.1029 15.7857 19.3557 15.7857 17Z" fill="#79745F"/>
<path d="M36.4285 0C34.2428 0 32.1785 0.461429 30.2842 1.21429C31.7656 2.45286 32.9556 3.81286 33.9028 5.17286C34.7042 4.97857 35.5542 4.85714 36.4285 4.85714C43.1313 4.85714 48.5713 10.2971 48.5713 17C48.5713 23.7029 43.1313 29.1429 36.4285 29.1429C35.5542 29.1429 34.7042 29.0214 33.9028 28.8271C32.9556 30.1871 31.7656 31.5471 30.2842 32.7857C32.1785 33.5386 34.2428 34 36.4285 34C45.8028 34 53.4285 26.3743 53.4285 17C53.4285 7.62571 45.8028 0 36.4285 0Z" fill="#79745F"/>
</svg>
