<svg width="93" height="93" viewBox="0 0 93 93" fill="none" xmlns="http://www.w3.org/2000/svg">
<path d="M38.1066 39.8886C35.9252 42.6555 31.4412 45.038 29.4719 45.8835C30.6838 43.5778 33.1075 37.0296 33.1075 29.2824C33.1075 19.5985 31.0625 22.5959 29.4719 13.6036C28.1994 6.40985 31.3654 1.53713 33.1075 0C39.2427 0.691711 41.7422 7.14768 43.3328 8.99224C44.9234 10.8368 44.6962 22.8265 44.469 26.5156C44.2417 30.2047 40.8333 36.4301 38.1066 39.8886Z" fill="#241613"/>
<path d="M26.0634 15.9093C24.4274 9.26892 27.1996 2.53627 28.7902 0C28.1085 0 25.6999 0.922281 21.5189 4.6114C16.2926 9.22281 14.0203 15.9093 14.0203 29.2824C14.0203 39.9809 21.5946 44.3463 25.3818 45.1918C30.608 39.8886 30.1536 31.3575 30.3808 28.3601C30.608 25.3627 28.1085 24.2099 26.0634 15.9093Z" fill="#241613"/>
<path d="M47.7346 80.2721C44.3384 80.8834 39.4616 79.695 37.4478 79.0244C39.8239 78.1162 45.8095 74.867 50.7425 69.1358C56.9087 61.9717 53.4678 62.8433 58.0019 55.1441C61.6291 48.9848 67.104 47.4636 69.388 47.473C73.5444 52.0224 71.3063 58.4434 71.3236 60.8548C71.3409 63.2662 63.5362 71.9864 61.0169 74.5661C58.4976 77.1457 51.9798 79.508 47.7346 80.2721Z" fill="#241613"/>
<path d="M53.9799 54.6067C56.9824 48.6174 63.3464 45.4611 66.1532 44.6316C65.6424 44.183 63.2505 43.2801 57.7688 43.2577C50.9167 43.2297 44.9565 46.6809 36.4412 56.5741C29.629 64.4887 32.5244 72.703 34.8236 75.8209C42.1162 75.3372 47.2079 68.7269 49.2867 66.659C51.3656 64.5911 50.2268 62.0932 53.9799 54.6067Z" fill="#241613"/>
<line x1="5" y1="-5" x2="116" y2="-5" transform="matrix(-0.705787 0.708424 -0.713929 -0.700218 87.4177 1.99872)" stroke="#FED32C" stroke-width="10" stroke-linecap="round"/>
<line x1="5" y1="-5" x2="116" y2="-5" transform="matrix(-0.70987 -0.704333 0.70987 -0.704333 90.9138 87.2216)" stroke="#FED32C" stroke-width="10" stroke-linecap="round"/>
</svg>
