<svg width="100" height="108" viewBox="0 0 100 108" fill="none" xmlns="http://www.w3.org/2000/svg">
<path d="M50.0002 63.3573L37.3127 75.8573C34.4377 78.7323 32.1877 82.2948 31.5002 86.2948C29.6252 97.7948 38.6252 107.732 50.0002 107.732C61.3751 107.732 70.3751 97.7948 68.5001 86.3573C67.8126 82.3573 65.6251 78.7323 62.6876 75.9198L50.0002 63.3573Z" fill="#FAFAFA"/>
<path d="M72.25 23.6698C64.875 32.8573 50 27.6698 50 15.8573V6.29484C50 1.29484 44.4375 -1.70516 40.3125 1.04484C25.75 10.7948 0 32.5448 0 63.9823C0 82.2323 9.75 98.1698 24.3125 106.857C19.875 100.482 17.6875 92.4198 19.25 83.8573C20.4375 77.3573 23.9375 71.4823 28.6875 66.8573L45.625 50.1698C48.0625 47.7948 51.9375 47.7948 54.375 50.1698L71.4375 66.9823C76.0625 71.5448 79.5625 77.2948 80.6875 83.7323C82.25 92.2323 80.25 100.232 75.875 106.607C87.6875 99.4198 96.4375 87.4823 99.0625 73.4823C102.875 53.0448 94 33.6698 78.9375 22.8573C76.875 21.2948 73.9375 21.6073 72.25 23.6698Z" fill="#FAFAFA"/>
</svg>
