<svg width="75" height="81" viewBox="0 0 75 81" fill="none" xmlns="http://www.w3.org/2000/svg">
<path d="M36.9978 22.8193C46.876 20.8763 51.3884 19.7279 58.4692 22.8193C67.6212 26.8151 71.9875 42.5007 71.1498 51.5758C70.264 61.1723 61.0365 78.0007 45.5553 78.0007C40.7911 78.0007 37.0076 76.5727 33.9639 74.265C27.1169 69.0739 22.7717 59.6624 21.9058 51.5758C20.9875 43.0007 23.6401 34.3737 26.0289 31.4463M36.9978 22.8193V26.7053M36.9978 22.8193C33.7305 21.0577 26.6477 19.1054 20.1941 20.8763C12.7124 22.9293 4.01278 29.8141 3.07924 46.0577C2.1457 62.3012 9.53091 72.0493 17.6269 74.9696C26.0301 78.0007 30.9299 75.348 33.9639 74.265M36.9978 22.8193C36.5571 17.3271 32.9216 5.67425 21.9058 3.00067" stroke="#241613" stroke-width="6" stroke-linecap="round"/>
<path d="M35.9855 16.0848C37.0515 11.8415 42.0386 3.47476 53.4584 3.954C64.8782 4.43325 65.497 4.70282 64.3789 4.77771C63.4949 9.99446 59.8859 20.5178 52.5223 20.8773" stroke="#241613" stroke-width="6" stroke-linecap="round"/>
</svg>
