<svg preserveAspectRatio="none" width="100%" height="100%" overflow="visible" style="display: block;" viewBox="0 0 39 54" fill="none" xmlns="http://www.w3.org/2000/svg">
<path id="Vector" d="M19.497 34.1053C24.1734 34.1053 27.9484 30.2968 27.9484 25.5789V8.52632C27.9484 3.80842 24.1734 0 19.497 0C14.8206 0 11.0456 3.80842 11.0456 8.52632V25.5789C11.0456 30.2968 14.8206 34.1053 19.497 34.1053ZM36.1462 25.5789C34.7658 25.5789 33.6108 26.6021 33.3854 27.9947C32.2304 34.6737 26.4553 39.7895 19.497 39.7895C12.5387 39.7895 6.76359 34.6737 5.60857 27.9947C5.3832 26.6021 4.22818 25.5789 2.84779 25.5789C1.12934 25.5789 -0.222877 27.1137 0.0306643 28.8189C1.41106 37.3453 8.17216 44.0242 16.6799 45.2463V51.1579C16.6799 52.7211 17.9476 54 19.497 54C21.0464 54 22.3141 52.7211 22.3141 51.1579V45.2463C30.8218 44.0242 37.5829 37.3453 38.9633 28.8189C39.2451 27.1137 37.8647 25.5789 36.1462 25.5789Z" fill="var(--fill-0, black)"/>
</svg>
