<svg width="66" height="101" viewBox="0 0 66 101" fill="none" xmlns="http://www.w3.org/2000/svg">
<path d="M62.2063 44.4367C62.6828 36.4686 63.0185 30.7141 63.0533 29.7513C63.1531 26.989 61.8191 26.4371 61.1396 26.5064H4.27033C2.47315 26.5064 2.3844 28.6697 2.56467 29.7513C2.8688 33.5156 3.22976 37.9754 3.61884 42.7726C5.39404 64.6604 7.75448 93.5709 7.97287 95.4817C8.23912 97.8114 10.6908 98.3106 11.8834 98.269C26.3607 98.269 55.5817 98.269 56.6467 98.269C57.7117 98.269 58.7267 96.4108 59.1011 95.4817C59.9323 81.9578 61.3155 59.3304 62.2063 44.4367ZM3.61884 42.7726C7.48307 42.9529 16.3597 43.6712 20.9526 45.1023C26.6936 46.8912 35.6795 42.7726 39.59 42.7726C43.5006 42.7726 51.9041 45.1023 54.733 45.1023C56.9961 45.1023 60.6581 44.6585 62.2063 44.4367" stroke="#241613" stroke-width="5" stroke-linecap="round"/>
<circle cx="34.5149" cy="55.7939" r="3.86894" fill="#241613"/>
<circle cx="23.8228" cy="64.8214" r="3.07851" fill="#241613"/>
<circle cx="40.5885" cy="65.6951" r="2.20488" fill="#241613"/>
<circle cx="33.7661" cy="72.7673" r="3.12011" fill="#241613"/>
<circle cx="26.9019" cy="81.7949" r="2.08008" fill="#241613"/>
<circle cx="34.5559" cy="90.2816" r="1.74726" fill="#241613"/>
<circle cx="24.7803" cy="15.9334" r="3.53613" fill="#241613"/>
<circle cx="37.5936" cy="10.9412" r="3.03691" fill="#241613"/>
<circle cx="30.8545" cy="1.87207" r="1.87207" fill="#241613"/>
</svg>
