<svg width="141" height="44" viewBox="0 0 141 44" fill="none" xmlns="http://www.w3.org/2000/svg">
<path d="M0.000235915 35.136C2.08024 34.944 4.09624 34.4 6.04824 33.504C8.03224 32.576 9.79224 31.392 11.3282 29.952C12.8642 28.512 14.0962 26.88 15.0242 25.056C15.9522 23.2 16.4162 21.232 16.4162 19.152V7.68H0.480236V5.72205e-06H25.5362V19.152C25.5362 22.64 24.9122 25.824 23.6642 28.704C22.4162 31.552 20.6562 34.032 18.3842 36.144C16.1442 38.256 13.4562 39.968 10.3202 41.28C7.21624 42.592 3.77624 43.424 0.000235915 43.776V35.136ZM31.6802 5.72205e-06H40.8002V16.656H45.6002V24.336H40.8002V43.776H31.6802V5.72205e-06ZM79.2021 36.576V5.72205e-06H88.3221V16.656H93.1221V24.336H88.3221V43.776H56.6421C55.3301 43.776 54.1461 43.568 53.0901 43.152C52.0341 42.736 51.1221 42.144 50.3541 41.376C49.6181 40.64 49.0421 39.744 48.6261 38.688C48.2101 37.632 48.0021 36.448 48.0021 35.136V5.72205e-06H57.1221V34.656C57.1221 35.232 57.2981 35.696 57.6501 36.048C58.0021 36.4 58.4661 36.576 59.0421 36.576H79.2021ZM126.724 36.576V5.72205e-06H135.844V16.656H140.644V24.336H135.844V43.776H104.164C102.852 43.776 101.668 43.568 100.612 43.152C99.556 42.736 98.644 42.144 97.876 41.376C97.14 40.64 96.564 39.744 96.148 38.688C95.732 37.632 95.524 36.448 95.524 35.136V5.72205e-06H121.06V7.2H104.644V34.656C104.644 35.232 104.82 35.696 105.172 36.048C105.524 36.4 105.988 36.576 106.564 36.576H126.724Z" fill="#B09012"/>
</svg>
