<svg width="71" height="90" viewBox="0 0 71 90" fill="none" xmlns="http://www.w3.org/2000/svg">
<path d="M38.1758 28.9515V87.7549" stroke="#FAFAFA" stroke-width="4" stroke-linecap="round"/>
<path d="M2.01089 28.2165V85.7948C1.92999 86.5299 2.2536 88 4.19528 88C6.13695 88 46.9123 88 67.0573 88C67.6237 88 68.7563 87.706 68.7563 86.5299C68.7563 85.3538 68.7563 47.1643 68.7563 28.2165H2.01089ZM2.01089 28.2165L17.0591 10.8205H22.6415" stroke="#FAFAFA" stroke-width="4" stroke-linecap="round"/>
<path d="M68.9998 27.4815L53.2237 9.84045M53.2237 9.84045H27.4965M53.2237 9.84045L37.933 27.4815M53.2237 9.84045V9.35043V2H17.0599V9.35043" stroke="#FAFAFA" stroke-width="4" stroke-linecap="round"/>
<path d="M43.2739 76.7294H68.0303" stroke="#FAFAFA" stroke-width="4" stroke-linecap="round"/>
<path d="M43.5157 38.5071H68.2721" stroke="#FAFAFA" stroke-width="4" stroke-linecap="round"/>
<path d="M2.25513 38.017H37.448" stroke="#FAFAFA" stroke-width="4" stroke-linecap="round"/>
<path d="M2.49695 76.7294H37.9326" stroke="#FAFAFA" stroke-width="4" stroke-linecap="round"/>
<path d="M11.4795 58.3532L19.0035 46.3475L27.7414 58.3532C30.1685 62.5185 27.9352 69.3789 19.0035 69.3789C10.0717 69.3789 9.05313 62.2735 11.4795 58.3532Z" stroke="#FAFAFA" stroke-width="4" stroke-linecap="round"/>
</svg>
