<svg width="55" height="63" viewBox="0 0 55 63" fill="none" xmlns="http://www.w3.org/2000/svg">
<path d="M20.5631 17.88V7.1744M20.5631 17.88H15.2116M20.5631 17.88H34.2065M20.5631 7.1744H15.2116M20.5631 7.1744H34.2065M39.1463 17.88V7.1744L34.2065 2H20.3279L15.2116 7.1744V17.88M15.2116 17.88H8.86032C6.80206 29.8743 2.56535 54.5647 2.08462 57.372C1.60389 60.1792 3.26505 60.9603 4.15572 61C18.4655 61 47.7203 61 50.2608 61C52.8013 61 53.1227 59.1761 52.9659 58.2641L45.9678 17.88H39.1463M39.1463 7.1744H34.2065M39.1463 17.88H34.2065M34.2065 7.1744V17.88" stroke="#30190B" stroke-width="4"/>
<path d="M12.999 55L41.999 55" stroke="#30190B" stroke-width="4" stroke-linecap="round"/>
</svg>
