<svg width="111" height="111" viewBox="0 0 111 111" fill="none" xmlns="http://www.w3.org/2000/svg">
<path d="M105.45 49.95H87.8565L101.954 35.853C104.118 33.6885 104.118 30.192 101.954 28.0275C99.789 25.863 96.237 25.863 94.0725 28.0275L72.15 49.95H61.05V38.85L82.9725 16.9275C85.137 14.763 85.137 11.211 82.9725 9.0465C80.808 6.882 77.3115 6.882 75.147 9.0465L61.05 23.1435V5.55C61.05 2.4975 58.5525 0 55.5 0C52.4475 0 49.95 2.4975 49.95 5.55V23.1435L35.853 9.0465C33.6885 6.882 30.192 6.882 28.0275 9.0465C25.863 11.211 25.863 14.763 28.0275 16.9275L49.95 38.85V49.95H38.85L16.9275 28.0275C14.763 25.863 11.211 25.863 9.0465 28.0275C6.882 30.192 6.882 33.6885 9.0465 35.853L23.1435 49.95H5.55C2.4975 49.95 0 52.4475 0 55.5C0 58.5525 2.4975 61.05 5.55 61.05H23.1435L9.0465 75.147C6.882 77.3115 6.882 80.808 9.0465 82.9725C11.211 85.137 14.763 85.137 16.9275 82.9725L38.85 61.05H49.95V72.15L28.0275 94.0725C25.863 96.237 25.863 99.789 28.0275 101.954C30.192 104.118 33.6885 104.118 35.853 101.954L49.95 87.8565V105.45C49.95 108.503 52.4475 111 55.5 111C58.5525 111 61.05 108.503 61.05 105.45V87.8565L75.147 101.954C77.3115 104.118 80.808 104.118 82.9725 101.954C85.137 99.789 85.137 96.237 82.9725 94.0725L61.05 72.15V61.05H72.15L94.0725 82.9725C96.237 85.137 99.789 85.137 101.954 82.9725C104.118 80.808 104.118 77.3115 101.954 75.147L87.8565 61.05H105.45C108.503 61.05 111 58.5525 111 55.5C111 52.4475 108.503 49.95 105.45 49.95Z" fill="#FAFAFA"/>
</svg>
