<svg width="146" height="129" viewBox="0 0 146 129" fill="none" xmlns="http://www.w3.org/2000/svg">
<path d="M83.1004 0.0250666C46.4835 -0.978072 16.485 28.2562 16.485 64.5125H3.60798C0.370732 64.5125 -1.21192 68.3818 1.09012 70.603L21.161 90.6658C22.5998 92.0988 24.8299 92.0988 26.2687 90.6658L46.3396 70.603C48.6417 68.3818 46.9871 64.5125 43.8218 64.5125H30.8728C30.8728 36.568 53.7493 13.9974 81.9493 14.3556C108.711 14.7139 131.227 37.1412 131.587 63.796C131.947 91.8122 109.286 114.669 81.23 114.669C69.6478 114.669 58.9289 110.729 50.4401 104.065C47.5626 101.844 43.534 102.059 40.9442 104.638C37.9228 107.719 38.1386 112.735 41.5197 115.386C52.4544 123.913 66.2667 129 81.23 129C117.559 129 146.982 99.1208 145.975 62.6496C145.04 29.0444 116.84 0.956552 83.1004 0.0250666ZM79.4315 35.8514C76.482 35.8514 74.0361 38.2876 74.0361 41.2254V67.5936C74.0361 70.1014 75.4029 72.466 77.5611 73.7557L100.006 87.0115C102.596 88.5162 105.905 87.6564 107.416 85.1485C108.926 82.569 108.063 79.273 105.545 77.7683L84.8269 65.5157V41.1537C84.8269 38.2876 82.4529 35.8514 79.4315 35.8514Z" fill="#30190B"/>
</svg>
