<svg preserveAspectRatio="none" width="100%" height="100%" overflow="visible" style="display: block;" viewBox="0 0 136.873 86.7745" fill="none" xmlns="http://www.w3.org/2000/svg">
<g id="Group 127">
<path id="Vector 7900" d="M94.878 23.1733L91.1128 20.6061C89.8805 17.8677 84.8943 16.7266 82.5553 16.4984C72.7997 5.54484 67.6652 0.153619 39.4255 5.71599C16.8337 10.1659 13.8671 34.84 15.2078 46.6208C13.4678 47.5907 9.98774 50.2834 9.98774 53.2957C9.98774 56.3079 9.98774 57.5744 9.98774 57.8311M9.98774 57.8311C34.3766 58.2305 85.499 51.858 94.878 23.1733C96.2187 18.6664 100.184 12.5621 106.602 9.13903C113.02 5.71599 131.761 4.51802 133.301 25.5694C134.364 31.1147 123.133 38.7194 117.384 41.8286C100.954 48.6746 101.296 51.3275 99.0712 63.8214C98.9001 65.7611 98.9685 69.9486 100.612 71.1808C102.665 72.7212 108.484 74.9461 108.998 81.1075H88.3744C86.0353 81.4498 81.0834 80.6968 79.988 74.9461V71.1808C77.649 73.4628 70.5405 77.9926 60.8192 77.8557C51.0979 77.7188 41.08 77.7986 37.2861 77.8557C36.1166 79.5386 32.9218 82.9559 29.4988 83.1613C26.0758 83.3667 15.0652 83.2469 9.98774 83.1613C10.2445 80.5941 11.6479 74.8434 15.2078 72.3789C16.52 71.9795 17.5183 71.2664 19.1443 69.9828M9.98774 57.8311L2.37158 64.8483" stroke="var(--stroke-0, #B09012)" stroke-width="7"/>
<circle id="Ellipse 14" cx="115.844" cy="21.9735" r="2.99512" fill="var(--fill-0, #B09012)"/>
</g>
</svg>
