<svg width="92" height="85" viewBox="0 0 92 85" fill="none" xmlns="http://www.w3.org/2000/svg">
<path d="M2 43.6195L22.4914 34.8112L44.8551 43.6195V69.051L24.5717 80.7179L2 67.735V43.6195ZM24.5717 80.7179V55.2862M44.8551 43.6195L24.5717 55.2862M24.5717 55.2862L2 43.6195" stroke="#241613" stroke-width="4" stroke-linecap="round"/>
<path d="M47.1445 43.6217L67.6359 36.1606L89.9996 44.9689V70.4004L69.7163 82.0673L47.1445 69.0844V43.6217ZM69.7163 82.0673V56.6355M89.9996 44.9689L69.7163 56.6355M69.7163 56.6355L47.1445 43.6217" stroke="#241613" stroke-width="4" stroke-linecap="round"/>
<path d="M23.4297 7.45592L43.297 2.06732L66.2848 7.87043V34.5025L46.0014 42.8963L23.4297 33.0518V7.45592ZM46.0014 42.8963V17.4645M66.2848 7.87043L46.0014 17.4645M46.0014 17.4645L23.4297 7.45592" stroke="#241613" stroke-width="4" stroke-linecap="round"/>
</svg>
