<svg preserveAspectRatio="none" width="100%" height="100%" overflow="visible" style="display: block;" viewBox="0 0 64.8161 89.226" fill="none" xmlns="http://www.w3.org/2000/svg">
<g id="Group 132">
<g id="Vector 7906">
<path d="M24.3937 39.99C22.1844 42.7638 17.6432 45.1524 15.6488 46C16.8761 43.6884 19.3308 37.1236 19.3308 29.3568C19.3308 19.6482 17.2597 22.6533 15.6488 13.6382C14.36 6.42613 17.5665 1.54104 19.3308 0C25.5443 0.693467 28.0757 7.16583 29.6866 9.01508C31.2975 10.8643 31.0674 22.8844 30.8373 26.5829C30.6071 30.2814 27.1552 36.5226 24.3937 39.99Z" fill="var(--fill-0, #FAFAFA)"/>
<path d="M12.1968 15.9497C10.5399 9.29246 13.3475 2.54271 14.9584 0C14.268 0 11.8286 0.924623 7.59425 4.62312C2.30129 9.24623 0 15.9497 0 29.3568C0 40.0824 7.67096 44.459 11.5064 45.3065C16.7994 39.99 16.3392 31.4372 16.5693 28.4322C16.7994 25.4271 14.268 24.2714 12.1968 15.9497Z" fill="var(--fill-0, #FAFAFA)"/>
</g>
<g id="Vector 7907">
<path d="M34.1431 80.476C30.7035 81.0888 25.7646 79.8974 23.725 79.2251C26.1315 78.3146 32.1935 75.0572 37.1894 69.3114C43.4344 62.1291 39.9496 63.0029 44.5414 55.2842C48.215 49.1092 53.7597 47.5842 56.0729 47.5936C60.2824 52.1545 58.0158 58.5918 58.0332 61.0094C58.0507 63.4269 50.1464 72.1693 47.595 74.7555C45.0435 77.3417 38.4426 79.71 34.1431 80.476Z" fill="var(--fill-0, #FAFAFA)"/>
<path d="M40.4682 54.7454C43.5089 48.7409 49.9542 45.5766 52.7968 44.745C52.2795 44.2952 49.8571 43.3901 44.3054 43.3676C37.3658 43.3395 31.3296 46.7995 22.7056 56.7178C15.8065 64.6525 18.7388 72.8877 21.0674 76.0134C28.453 75.5285 33.6097 68.9014 35.7151 66.8283C37.8204 64.7551 36.6672 62.2509 40.4682 54.7454Z" fill="var(--fill-0, #FAFAFA)"/>
</g>
</g>
</svg>
