<svg width="32" height="44" viewBox="0 0 32 44" fill="none" xmlns="http://www.w3.org/2000/svg">
<path d="M15.9975 27.7895C19.8346 27.7895 22.932 24.6863 22.932 20.8421V6.94737C22.932 3.10316 19.8346 0 15.9975 0C12.1605 0 9.06308 3.10316 9.06308 6.94737V20.8421C9.06308 24.6863 12.1605 27.7895 15.9975 27.7895ZM29.6584 20.8421C28.5258 20.8421 27.5781 21.6758 27.3932 22.8105C26.4455 28.2526 21.7069 32.4211 15.9975 32.4211C10.2882 32.4211 5.54962 28.2526 4.60191 22.8105C4.41699 21.6758 3.46928 20.8421 2.33665 20.8421C0.926641 20.8421 -0.182873 22.0926 0.0251604 23.4821C1.15779 30.4295 6.70536 35.8716 13.6861 36.8674V41.6842C13.6861 42.9579 14.7262 44 15.9975 44C17.2689 44 18.309 42.9579 18.309 41.6842V36.8674C25.2897 35.8716 30.8373 30.4295 31.9699 23.4821C32.2011 22.0926 31.0684 20.8421 29.6584 20.8421Z" fill="#79745F"/>
</svg>
